<svg xmlns="http://www.w3.org/2000/svg" width="282" height="200" xmlns:v="https://vecta.io/nano"><path d="M191.93 113.7a41.42 41.42 0 0 0 7.36-1l2-.63a14.8 14.8 0 0 0 5.11-2.24c.7-.53 1.36-.72 2.06-1.32l.35-.29a8.9 8.9 0 0 0 2.59-4.63c.26-1.12.62-8.45.62-9.45 0-2.36.28-3.15.27-4.76l.13-4.63.37-4.43c.44-2.27.36-3.8.86-6.43l.16-1.07c.19-1.45 1-6.08 1.34-7.34a12.17 12.17 0 0 1 .86-1.79c1.93-2.91 9.8-2.68 13-3.06 1.58-.18 3.42-.23 5.12-.4a23.33 23.33 0 0 1 2.45-.25 7.15 7.15 0 0 0 1.31 0 5.19 5.19 0 0 1 .55-.1c.82-.09 2.12.07 3.9-.17.88-.11 1.83 0 2.72-.08a34.21 34.21 0 0 1 6.4 0 9.73 9.73 0 0 1 3.65 1.37l1.09 1c2.16 2.49 1.48 1.25 3.1 4.54a35.13 35.13 0 0 1 2.44 7c.12 1.08.37 2 .59 3.11l.77 8.35c0 1.83.2 3.48.27 5.25 0 .75.21.92.28 1.7.08.95.08 2.6.22 3.46.17 1 .39 2.27.45 3.25s.12 3 .09 3.4c-.06.86 0 2.12 0 3l-.12 1.11c-.09 1.56 0 2.63-.19 4.1-.13.86 0 1.85-.11 2.83s-.37 1.85-.5 2.6a29.74 29.74 0 0 1-1.39 5.46 2.53 2.53 0 0 1-.26.5 11.55 11.55 0 0 1-2.49 3.74l-1.72 1.63-.06.06c-.12.11-.07.08-.19.2a5.47 5.47 0 0 1-1.51 1 33.89 33.89 0 0 1-3.63 1.25 46.82 46.82 0 0 1-5.75.82c-2 .14-4.19.23-6.39.23l-10.58-.59c-.84-.1-1.72-.12-2.55-.16a39.77 39.77 0 0 1-6-.8c-.5-.1-.76-.11-1.24-.22a7.99 7.99 0 0 1-1-.28 7.65 7.65 0 0 1-2-1 .18.18 0 0 0-.07 0l-.08-.06-.23-.16c-2.49-1.73-1.66-2.48-2.28-3.79-.22-.46-.07-.55-.24-1a2.66 2.66 0 0 0-1.4-1.3 16.87 16.87 0 0 0-2.34-1c-1.35-.38-2.48-.64-3.88-.91-.24-.05-.78-.14-1.08-.24-1.57-.55-3.71-1-5.31-1.58l-5.94-2.11c-.63-.22-2.57-.72-2.61-1.43-.14-.46.09-.29.66-.26zm24.18-27.43zm0 23.91zm36.26-34zm-.82 11zm.41 22.69zm-2-28.91zm-4.07-12.44zm-16.16 4.27zM230 116h0zm-1.22-27.81zm14.67-12.68zm4.48-2.32zm-15.62 13zm-.41 9.15zm.14-.49zM231.86 77h0m.28 2.44zm1.62 17.81zm-2.3 13.54zm3.94-33.18h0m9.5 46.23zm-23.35-46.23zm-.69 15.25zm11.41-17.69l7.47-7.32zm18.2 52.09zm1.22-27.08zm.13 8.29zm-6.92 9.15zm-32.32 12.08zm1.09-34.4z" fill="#35a8e0"/><g fill="#fff"><path d="M54.7 72.51l-.49-.65-.38.44zm-3.01 65.52l-.26-.25v.25h.26zm46.68-29.87l-.16.25h.16z"/><path d="M98.11 108.41v.16a1.4 1.4 0 0 0 .1-.16zm1.01-1.51l.12-.11h0a1.33 1.33 0 0 1-.12.11zm-34.89 34.89h0q-.35 0-.72 0z"/><path d="M82.3 139a1.63 1.63 0 0 0 .13.75l.38.76h.5l.25.12c-.16-.09-.25 0-.25.13a5.43 5.43 0 0 0 3.26 0v-.25a5.64 5.64 0 0 0 1.26-1q2.76-1 3.39-2.13a17 17 0 0 1 1.38-2.14l1.75-3.11v.1a11.85 11.85 0 0 0 2.26-2.51h-.25l.5-.25.76-1 .49-1 .51-1h.5l-.25-.25.25-.25v.25l.25-.76 1.76-3.25-.26-.51.26.25.5-1.76q-.75 7.55-.76 11.55l.13 6.4c.13 1.4 1.72 2.14 4.9 2.14 3.67 0 5.77-.3 6.27-.88s.75-1 .75-1.14a7.26 7.26 0 0 1-.25-2.75q0-4.28.76-12.43.76-8.15 2.26-17.69l1-2.26.75-1.51v-.75l.51-.75a.48.48 0 0 1 .12-.38.52.52 0 0 0 .12-.38l.51-.5q3.51-5.78 6.52-11.42a55.51 55.51 0 0 1 8-11.17.54.54 0 0 1-.13.38.47.47 0 0 0-.09.35 229.88 229.88 0 0 0-7.91 29.87 115.74 115.74 0 0 0-2.09 18.86 36.82 36.82 0 0 0 1.39 10.79q1.37 4.51 4.14 4.52a5.65 5.65 0 0 0 3.39-1 12.5 12.5 0 0 0 2.38-2.26 9.79 9.79 0 0 0 1.38-2.13c.25-.58.38-.79.38-.62a7.24 7.24 0 0 0-.5-1.51A18.34 18.34 0 0 1 135 128a119.94 119.94 0 0 1 1.51-16.32 192.45 192.45 0 0 1 5-23.09c.84-3.35 1.79-6.82 2.88-10.42a46.93 46.93 0 0 0 1.88-11.92 15.88 15.88 0 0 0-.37-2.64 6.81 6.81 0 0 0-2.35-3.61 10 10 0 0 0-4.27-1.5 7.81 7.81 0 0 0-4.89 1.63 21.11 21.11 0 0 0-3.9 3.89 40.69 40.69 0 0 0-3.13 4.65 29.61 29.61 0 0 1-2.36 3.59 55.46 55.46 0 0 1-1.5 2.39c-.5.75-1 1.55-1.51 2.38q3-10 4.77-14.56a21.06 21.06 0 0 0 1.76-6.77c0-.5-.72-1.34-2.14-2.51s-3.81-1.76-7.15-1.76c-2.35 0-3.6 1-3.77 3.14a60 60 0 0 1-1.5 8.41q-2.27 6-4.64 14.18-2.37 8.18-5 16.56-1.65 5.31-3.37 10.4h0l-.25.75-.5.51v.5l-.89.89a2.7 2.7 0 0 0-.37.61l-.25.26.25.25c-.17.16-.21.29-.13.37s.05.21-.12.38l-.51.25v-.34a20.1 20.1 0 0 0-.75 1.34l-1 2h.25l-.25.75h-.25l-.25.51-.25.25a.5.5 0 0 1-.13.37.54.54 0 0 0-.12.38l-.5 1v.25l-.26.75-.5.75v.25l-3.14 6a58.94 58.94 0 0 1-3.63 6.28 12.56 12.56 0 0 1 .12-1.88 13.82 13.82 0 0 0 .12-1.88 132.6 132.6 0 0 1 3.27-14.56c1.33-4.68 2.42-8.79 3.26-12.3q1.75-7 3.26-11.67 1.51-4.67 2.57-7.72l1.76-5c.42-1.23.79-2.3 1.13-3.14a1.15 1.15 0 0 0 .09-.33c1.75-4.1 6.36-16.22 1.62-20.31 0 0-7-6.33-22.13 3.61A20.5 20.5 0 0 0 77.41 58a53.89 53.89 0 0 0-7.78 9.16 117.43 117.43 0 0 0-8.29 14 78.68 78.68 0 0 0-6.4 18 91.67 91.67 0 0 0-2.26 20.58 32.35 32.35 0 0 0 .09 4.13 13 13 0 0 1-2 2c-1.1.92-2.14 1.85-3.14 2.77a22.1 22.1 0 0 1-2.89 2.26 4.79 4.79 0 0 1-1.88.87.22.22 0 0 1-.25-.25v-.25q-6.78-7.27-10.8-11.92-4.02-4.65-4.76-6.66l1-2.5v.25l.5-1.26.25-.25.25-.5v-.75l.26-.26.5-.25a21.24 21.24 0 0 0 1.25-2.38 11.53 11.53 0 0 1 1.51-2.39l2.76-4.76q2.76-3.27 5.77-7 3.01-3.73 5.53-7c1.67-2.18 3-4.14 4.14-5.9a8.92 8.92 0 0 0 1.63-3.89l.5.5v-1c.33-.34.62-.65.89-1h-.14-.25c.17-.16.25-.29.25-.37s.08-.21.25-.38l.27.35A7.53 7.53 0 0 0 55.45 70a3.38 3.38 0 0 0 .37-1.76.24.24 0 0 0 0-.09L56 68h-.23 0a3.67 3.67 0 0 0 .74-2.24q0-.75-3.13-2.89a10.22 10.22 0 0 0-5.4-2.13q.24 0-2.26 3.64C44 66.78 41.85 70 39.26 74s-5.48 8.68-8.66 14a180.19 180.19 0 0 0-8.78 16.44c0-.33-.09-.5-.25-.5l.25-.75v-.25c0-.17 0-.26.12-.26s.13-.08.13-.25l.25-1v.25q.75-3.51 1.38-7c.41-2.34.88-4.68 1.38-7L27.34 76Q30.6 63.47 34 51.56q3.4-11.91 6.15-21 2.76-9 4.64-14.56 1.88-5.56 1.89-5.27a5.08 5.08 0 0 0-1.51-3Q43.65 6 39.64 6c-.84 0-1.8.79-2.89 2.38a37.53 37.53 0 0 0-3.64 8.16q-2 5.78-4.89 15.31-2.89 9.53-6.91 23.6Q15.54 76 12.4 90.21q-3.14 14.21-4.52 23.72-1.36 9.54-1.63 15.07L6 137.53a5.23 5.23 0 0 0 1.38 3.14c.75.76 2.22 1.13 4.4 1.13 2.5 0 4-.54 4.39-1.63a8.35 8.35 0 0 0 .62-2.13c0-.21 0-.5.05-.85l.21-.41.25-.5a8.85 8.85 0 0 0 .75-3.39 30 30 0 0 1 .76-4.64l.24-2.51h-.24v-1l.24-.25.26-2.25a41.64 41.64 0 0 0 6.52 7.4 76.54 76.54 0 0 0 7.78 6.15l3.77 2.76a4.18 4.18 0 0 0 1.5.88 19.48 19.48 0 0 1 2 .88 9.23 9.23 0 0 0 2.26.75l1.65.47.36.53v-.5h.5a4.52 4.52 0 0 0 2.26-.75 6.06 6.06 0 0 0 1.5-.76c0-.17.34-.41 1-.75v-.3l.75-.76.25-.24-.25-.75.25.49.51-.25a1.47 1.47 0 0 1 .75-1.25c.5-.34.66-.5.5-.5a.22.22 0 0 1-.25-.25c0-.17.08-.26.25-.26l.25.26a6.76 6.76 0 0 1 .76-1.13 2.7 2.7 0 0 0 .41-.72 18.47 18.47 0 0 0 .71 1.72 9.05 9.05 0 0 0 3.7 3.92h.25v.25a13.68 13.68 0 0 1 1.89 1.13 14 14 0 0 0 1.86 1.13h.5c-.5 0-.75-.09-.75-.25l-.26-.25.26-.25h.75v-.25h.5c.51 0 .75.08.75.25l.51-.25-.26-.25h2c-.16 0-.25 0-.25.12s-.08.13-.25.13l-.75.5-.26-.25a1.45 1.45 0 0 1-1 .5H64l.22.22a5.33 5.33 0 0 0 3.54-1.47 13.11 13.11 0 0 0 6.53-5.65c1.51-2.6 2.84-4.81 4-6.65v2.76a7.29 7.29 0 0 0 .5 2.76l1 3A6.12 6.12 0 0 0 82.3 139zm12.14-7c.06-.11.11-.23.16-.33l.13-.26.12.38zm3.42-7.49c0 .17 0 .22-.12.13s-.12 0-.12.12v-.25l-.42.94.47-1.38c.33.25.33.4.19.4zm-.12-.65c.09-.24.16-.47.24-.71l.13-.14a1.29 1.29 0 0 1-.37.81zm1.13 1.41l-.25-.51.25-.25v.25h.25zm0-3.52v-.25h.25zm-52-39.15v.5l-.24-.25a.22.22 0 0 0 .28-.29zm-30.02 54.45c0-.2 0-.41.07-.66a22.33 22.33 0 0 0 .13-2.38 15.71 15.71 0 0 1-.2 3.04zm1.2-10.05h-.25l.25-.25zM44 140.91l.11.21-.21-.12zm.45.38h.24l.13.19zm2.5-1.26h.25l-.25.26-.16.33-.08-.08zM80 108.41v.25q-2 3.77-4.26 8-2.26 4.23-5 8.54a40.17 40.17 0 0 1-2.89 4A12.08 12.08 0 0 1 65 132c0 .17-.25.09-.75-.25s-.84-1.42-1-3.26a47.44 47.44 0 0 1-.13-9.16 84.08 84.08 0 0 1 1.26-9.16c.58-3 1.25-5.86 2-8.54a61 61 0 0 1 2.38-7 106 106 0 0 1 6.64-14.46 69.82 69.82 0 0 1 5.77-8.66 40.61 40.61 0 0 1 4.52-4.89 73.06 73.06 0 0 0 2.33-2.1c1.6-.93 5.52-2.75 3.64 3.12 0 .17-.09.32-.13.47-.25.51-.52 1.09-.81 1.77-.93 2.09-1.93 4.77-3 8s-2.22 7-3.39 11.17-2.25 8.62-3.26 13.3l-.5 3zm19.25-1.63h0c.05-.05.05-.06 0 0zm15.18 45.81c0 .14-.07.15-.19 0l-.81.2h.25c0 .17 0 .26-.13.26s-.11.07-.12.2a2.44 2.44 0 0 1-.51.05v.25h-.25l.25.25a.52.52 0 0 0 .38-.12c.09-.09.29-.13.63-.13h.5l.25-.5v-.26a.22.22 0 0 1 .25-.24l.25-.26c-.5.04-.75.13-.75.3zm-.87.68l.37-.18a.8.8 0 0 1-.37.18z"/><path d="M114.18 152.59h.06.19zm-1.26.24l-.72.54.22.22.5-.25v-.25-.26zm4.27-3.01l.11-.1-1.11.1zm-1.26 3.52l.37-.18-1.12.18z"/><path d="M123.49 149.05h.2zm-9.31 1.15a8.47 8.47 0 0 1 1.51-.13 18.9 18.9 0 0 0-2 .12 1.09 1.09 0 0 0 .49.01zm160.64 10.67a1.45 1.45 0 0 0-1-.51q-1.51-.75-11.3-3-9.79-2.25-23.84-4.76-14.07-2.52-30.75-4.9-16.68-2.38-31.75-3.64a134.53 134.53 0 0 0 5.39-23.59q1.13-9.79 2.89-18.08 1.75-14.8 2.64-23.46.89-8.66.9-14.45v-.23c0-3.87-.23-17.52-4.68-18.69 0 0-7-1.94-12.32.37-.87 0-1.31.21-1.31.48h.25q-2.27 1.26-6.9 7.4a96.27 96.27 0 0 0-9.41 16.07 172.66 172.66 0 0 0-8.79 22.59 125.72 125.72 0 0 0-5.27 26.73c0 1.84.09 4.06.25 6.65a27 27 0 0 0 1.51 7.41 13.81 13.81 0 0 0 4 5.9q2.74 2.39 7.77 2.38a11.33 11.33 0 0 0 5.53-1.25 16.09 16.09 0 0 0 3.89-3 26.32 26.32 0 0 0 2.76-3.52c.75-1.17 1.38-2.09 1.88-2.76q-.75 3.51-1.38 6.15a63.24 63.24 0 0 1-1.88 6.15c-1.17 0-4.23-.17-9.16-.5s-10.67-.51-17.2-.51q-9.28 0-19.45.51a87.75 87.75 0 0 0-18.57 2.76 35.63 35.63 0 0 0-13.94 6.9q-5.5 4.64-5.52 12.67 0 9.54 5.78 15.19A40.51 40.51 0 0 0 99 189a61.17 61.17 0 0 0 14.56 4 84.69 84.69 0 0 0 10.17 1q11.81 0 20.08-4.14a48.14 48.14 0 0 0 14-10.42 58.91 58.91 0 0 0 9.42-13.55 141.5 141.5 0 0 0 5.89-13.3c1.18 0 2.31 0 3.39.12s2.22.21 3.39.38a7.49 7.49 0 0 1 2.26-.26l2.76.51h2c0 .16.25.33.75.5h1l-1-1.25H187q0 .24-.75.24l-.75-.24-.51-.51a26.19 26.19 0 0 0 2.64.38 9.11 9.11 0 0 1 2.63.63h-1l-.51.75c1 .16 2.05.29 3.14.37a25.23 25.23 0 0 1 2.89.38.22.22 0 0 1-.25-.25h.25l.25.25h.75a4.87 4.87 0 0 0 2.52.76c1.33.16 2.25.25 2.76.25h.25l.25.25h.25a3.87 3.87 0 0 1 1 .13 4.36 4.36 0 0 0 1 .12h.5l5.77 1q12.81 2.76 24.22 5.4 11.41 2.64 19.83 4.64 8.42 2 13.18 3.27 4.76 1.27 4.52 1.25c1.16 0 2.17-.75 3-2.26a11.21 11.21 0 0 0 1.25-5.52 4.09 4.09 0 0 0-1.26-3.01zm-124.24 8.66a30.75 30.75 0 0 1-15.32 10.66 30.39 30.39 0 0 1-11.79 2 71.6 71.6 0 0 1-10.8-.88 49 49 0 0 1-10.79-2.88 26 26 0 0 1-8.41-5.27 10.76 10.76 0 0 1-3.38-8 9 9 0 0 1 3.63-7.4 36.69 36.69 0 0 1 9.41-5.14l-1 .24a1.94 1.94 0 0 1-.75.26.73.73 0 0 0-.51.25l-1 .25 2.38-1 2.38-1 .25.5q2.52-.5 5.4-1.25a24.23 24.23 0 0 1 3.44-.64.34.34 0 0 1-.3-.37l.5-.24c1-.17 2-.3 3-.38s2.09-.13 3.26-.13l-3.26.51h.5l-.14.14 4.79-.52 1.4-.15h-.53-2.51a11.53 11.53 0 0 1 2.26-.25H125a2.67 2.67 0 0 0-.88.13 2.81 2.81 0 0 1-.4.08 46.28 46.28 0 0 1 4.3-.21h-.26a22.38 22.38 0 0 1 3.65-.25h15.05a31.52 31.52 0 0 1 6.15.5h-9.29a11.24 11.24 0 0 0-4.26.51h-2.51c-.33 0-1.13 0-2.38.12s-1.87.28-1.89.61c-.13 0-.18-.05-.12-.11s0-.13-.38-.13l.5-.25a44.97 44.97 0 0 1-2.76.38 24.57 24.57 0 0 0-2.51.38l-.5.25.25-.25h-.25a20.81 20.81 0 0 0-2.26.12 3.84 3.84 0 0 0-2.26.63v-.25a18.15 18.15 0 0 1-2.13.5 12.47 12.47 0 0 1-1.88.25l-.51.25h.25l-.5.25h.25l-1 .76-.14.07c.58-.08 1.2-.15 1.89-.2 1.18-.08 2.35-.13 3.52-.13l.75-.24h2.76l2-.26h3v-.25l.5.25 1.25-.25h7.78l-.25-.5h6.28a.54.54 0 0 1 .62-.12.43.43 0 0 0 .45-.13h1.69l1 .25c1.84 0 3.72 0 5.65.13s3.8.12 5.65.12a73.07 73.07 0 0 1-10.29 17.68zM139 150.33a.77.77 0 0 1-.5.25v-.25zm-6.53.25v-.25h.53a.77.77 0 0 1-.51.25l.25.25h-.5zm0 .5h.53l.25.25-1 .25zm-3.32-.47l-.44.22a.74.74 0 0 1 .47-.22zm-4.21.47c-.33 0-.5-.09-.5-.25h.25zm36.15 0h-2.26l1.25-.25h1zm10.79-45.94v.76l-.5 1-1.76 5c-1 2-2.22 4.23-3.64 6.66s-2.89 4.68-4.39 6.77a32.7 32.7 0 0 1-4.64 5.27c-1.6 1.42-3 2.14-4.15 2.14-2 0-3-2.51-3-7.53a58.24 58.24 0 0 1 2.89-17.83q2.88-9 4.89-15.56a180.68 180.68 0 0 1 8.79-20.33 101.32 101.32 0 0 1 6.3-10.49q1.56-2.2 2.64-3.56c1-.49 4.08-1.6 1.87 5.53a7.51 7.51 0 0 0-.39 2.22c0 .28-.08.55-.11.83q-.51 2.76-1.51 13.05-1 10.29-3.26 26.07zm3 46.19a1 1 0 0 1-1-.5h1.5l-.75.25zm6.28.75l-.76-.25a1.44 1.44 0 0 1-1-.25.22.22 0 0 1-.25-.25v-.25a2.57 2.57 0 0 0 1.13.25 2.47 2.47 0 0 1 1.13.25zm2.51.25l-1.51.26.25-.76a6.45 6.45 0 0 1 2.26.25l.25.25zm-71.75 1.26l.28-.22-.03-.03-.25.25zM229 120.17v-31h-3.46V83H229v-1a22.14 22.14 0 0 1 1-7.47c.95-2.51 2.86-4.55 6.86-4.55a7.19 7.19 0 0 1 2.38.27l.82.21v5.91c-.21-.07-.41-.07-.62-.14a9.74 9.74 0 0 0-1.42-.13c-1.16 0-1.7 1-2 2.3a10.09 10.09 0 0 0-.21 2V83h3.47v6.2h-3.47v31zm26.38-30.09a6 6 0 0 0-1.91-.27A4.75 4.75 0 0 0 250 91a4 4 0 0 0-1.49 3.4v25.81h-6.86V83h6.86v4.15a5.64 5.64 0 0 1 1.63-2.72 7.28 7.28 0 0 1 5.23-2z"/></g></svg>